<?xml version="1.0" standalone="no"?>
<!DOCTYPE svg PUBLIC "-//W3C//DTD SVG 20010904//EN"
 "http://www.w3.org/TR/2001/REC-SVG-20010904/DTD/svg10.dtd">
<svg version="1.0" xmlns="http://www.w3.org/2000/svg"
 width="640.000000pt" height="640.000000pt" viewBox="0 0 640.000000 640.000000"
 preserveAspectRatio="xMidYMid meet">
<metadata>
Created by potrace 1.11, written by Peter Selinger 2001-2013
</metadata>
<g transform="translate(0.000000,640.000000) scale(0.100000,-0.100000)"
fill="#000000" stroke="none">
<path d="M0 3200 l0 -3200 3200 0 3200 0 0 3200 0 3200 -3200 0 -3200 0 0
-3200z m1983 2715 c282 -31 565 -109 835 -231 l72 -33 0 -346 c0 -274 -3 -345
-12 -339 -7 4 -43 27 -79 50 -90 58 -295 165 -400 208 -177 73 -421 126 -579
126 -143 0 -354 -46 -465 -102 -180 -91 -319 -269 -376 -483 -30 -112 -38
-373 -15 -501 28 -161 92 -284 194 -375 106 -93 249 -156 543 -239 337 -96
348 -99 459 -137 430 -146 719 -420 853 -809 77 -223 107 -421 107 -706 -1
-515 -123 -892 -374 -1156 -183 -193 -413 -309 -731 -368 -141 -27 -558 -27
-690 -1 -284 57 -517 133 -782 258 l-103 48 0 365 c0 201 2 366 5 366 4 0 47
-29 97 -65 276 -198 534 -322 808 -387 83 -19 122 -22 310 -22 249 0 317 12
475 89 295 143 445 423 445 830 0 268 -67 484 -196 634 -56 64 -184 156 -288
205 -99 47 -207 83 -446 146 -197 53 -237 65 -335 102 -464 177 -726 449 -829
863 -43 173 -51 254 -51 520 1 291 19 428 85 626 137 412 422 700 809 816 102
30 312 61 429 62 46 1 147 -6 225 -14z m1757 -1450 l0 -1255 -95 0 -95 0 0
1255 0 1255 95 0 95 0 0 -1255z m947 581 c95 -20 165 -59 228 -127 63 -69 93
-123 124 -223 51 -165 54 -210 58 -868 l5 -618 -101 0 -101 0 0 123 0 122 -35
-61 c-51 -90 -119 -160 -189 -197 -59 -30 -66 -32 -181 -32 -117 0 -121 1
-175 32 -94 54 -153 134 -197 268 -25 74 -27 93 -27 260 -1 158 2 189 22 258
30 105 54 150 115 214 59 63 94 86 173 115 51 19 88 22 274 27 l215 6 3 58 c4
76 -12 149 -48 223 -46 94 -100 142 -189 168 -123 36 -289 1 -425 -89 -29 -19
-56 -35 -60 -35 -3 0 -6 61 -6 135 l0 136 75 34 c66 31 181 66 255 78 52 9
127 6 187 -7z m1476 3 l37 -10 0 -145 0 -145 -32 17 c-18 10 -65 19 -104 22
-129 8 -219 -52 -285 -193 -71 -151 -72 -161 -76 -807 l-4 -578 -100 0 -99 0
2 898 3 897 97 3 97 3 3 -133 3 -133 27 53 c80 154 148 214 283 248 63 16 100
17 148 3z m-1999 -2524 c38 -8 98 -28 133 -44 l63 -30 0 -140 0 -140 -45 30
c-182 123 -443 129 -545 13 -53 -60 -75 -187 -48 -275 26 -89 87 -132 288
-204 144 -51 208 -85 271 -144 102 -93 142 -203 142 -396 1 -174 -30 -279
-114 -386 -96 -121 -256 -177 -454 -158 -111 11 -294 61 -332 92 -9 7 -13 51
-13 158 0 82 3 149 6 149 3 0 24 -13 47 -29 126 -86 298 -140 412 -128 61 6
139 38 173 70 52 49 67 94 67 207 0 93 -3 110 -24 147 -38 67 -102 103 -301
173 -203 72 -284 143 -337 295 -25 73 -27 93 -27 220 0 103 5 157 18 204 76
277 291 386 620 316z m1161 11 c33 -7 81 -23 106 -35 59 -28 144 -112 188
-186 43 -71 95 -208 115 -305 17 -79 42 -450 32 -475 -5 -13 -68 -15 -457 -15
l-452 0 7 -71 c40 -435 244 -622 580 -534 75 20 114 38 199 92 37 24 70 43 73
43 2 0 3 -62 2 -137 l-3 -138 -60 -32 c-62 -33 -190 -76 -260 -88 -68 -11
-197 -6 -259 10 -116 31 -237 118 -307 220 -130 192 -192 500 -168 834 34 479
214 772 504 820 72 12 93 12 160 -3z"/>
<path d="M4533 4099 c-56 -11 -132 -45 -161 -72 -68 -63 -105 -219 -84 -354
22 -138 74 -217 168 -253 66 -24 94 -25 164 -4 41 12 67 29 110 72 105 106
157 257 167 485 l6 137 -164 -1 c-90 -1 -183 -5 -206 -10z"/>
<path d="M5143 2281 c-59 -20 -112 -57 -147 -104 -62 -81 -111 -225 -123 -355
l-6 -72 349 2 349 3 -4 80 c-7 159 -59 304 -138 383 -79 79 -174 100 -280 63z"/>
</g>
</svg>
